<svg xmlns="http://www.w3.org/2000/svg" width="1440" height="1399" fill="none"><path fill="#fff" d="M0 0h1440v1399H0z"/><mask id="a" width="1440" height="974" x="0" y="0" maskUnits="userSpaceOnUse" style="mask-type:alpha"><path fill="#fff" d="M0 0h1440v974H0z"/></mask><g mask="url(#a)" opacity=".15"><g filter="url(#b)"><path stroke="url(#c)" stroke-linecap="round" stroke-width="330" d="M1849.24-831.727s-18.52 712.264-338.2 1109.582c-312.63 388.549-591.958 68.907-901.317 461.029-309.246 391.976-16.299 677.596-314.7 1079.816-321.296 433.08-978.244 558.5-978.244 558.5"/></g><g filter="url(#d)"><path stroke="url(#e)" stroke-linecap="round" stroke-width="330" d="M218.906 1714.23s101.68-340.45 296.625-583.82c190.643-238.007 273.533-134.939 463.184-374.07 189.585-239.043 96.145-323.646 282.225-565.663 200.35-260.586 510.34-433.513 510.34-433.513"/></g><g filter="url(#f)"><path stroke="url(#g)" stroke-linecap="round" stroke-width="330" d="M-130.884 2212.6s101.68-340.45 296.626-583.82c190.642-238.01 273.532-134.94 463.183-374.07 189.581-239.04 96.145-323.645 282.224-565.663C1111.5 428.461 1421.49 255.534 1421.49 255.534"/></g><g filter="url(#h)" style="mix-blend-mode:overlay"><path stroke="url(#i)" stroke-linecap="round" stroke-width="330" d="M111.028 1207.98s21.393-239.227 135.701-380.943c111.786-138.589 197.372-38.92 308.152-178.619 110.74-139.648 19.918-227.547 127.289-370.337 115.608-153.746 335.7-213.346 335.7-213.346"/></g></g><path fill="url(#j)" d="M0 619h1440v355H0z"/><defs><linearGradient id="e" x1="1618.24" x2="-214.018" y1="-388.693" y2="1467.86" gradientUnits="userSpaceOnUse"><stop offset=".247" stop-color="#BDE6FC"/><stop offset=".485" stop-color="#F463E6"/><stop offset=".619" stop-color="#2637A4"/><stop offset="1" stop-color="#fff"/></linearGradient><linearGradient id="g" x1="1351.56" x2="-596.63" y1="267.19" y2="1859.15" gradientUnits="userSpaceOnUse"><stop offset=".209" stop-color="#BDE6FC"/><stop offset=".32" stop-color="#2637A4"/><stop offset=".485" stop-color="#F463E6"/><stop offset="1" stop-color="#fff"/></linearGradient><linearGradient id="i" x1="963.317" x2="-153.846" y1="57" y2="1025.3" gradientUnits="userSpaceOnUse"><stop offset=".209" stop-color="#BDE6FC"/><stop offset=".32" stop-color="#2637A4"/><stop offset=".485" stop-color="#F463E6"/><stop offset="1" stop-color="#fff"/></linearGradient><linearGradient id="j" x1="720" x2="720" y1="619" y2="974" gradientUnits="userSpaceOnUse"><stop stop-color="#fff" stop-opacity="0"/><stop offset="1" stop-color="#fff"/></linearGradient><filter id="b" width="3180.73" height="3904.71" x="-1007.37" y="-1179.61" color-interpolation-filters="sRGB" filterUnits="userSpaceOnUse"><feFlood flood-opacity="0" result="BackgroundImageFix"/><feBlend in="SourceGraphic" in2="BackgroundImageFix" result="shape"/><feGaussianBlur result="effect1_foregroundBlur_5789_525" stdDeviation="85.714"/></filter><filter id="d" width="2200.67" height="2652.93" x="-105.247" y="-590.766" color-interpolation-filters="sRGB" filterUnits="userSpaceOnUse"><feFlood flood-opacity="0" result="BackgroundImageFix"/><feBlend in="SourceGraphic" in2="BackgroundImageFix" result="shape"/><feGaussianBlur result="effect1_foregroundBlur_5789_525" stdDeviation="85.714"/></filter><filter id="f" width="2200.67" height="2652.93" x="-455.036" y="-92.395" color-interpolation-filters="sRGB" filterUnits="userSpaceOnUse"><feFlood flood-opacity="0" result="BackgroundImageFix"/><feBlend in="SourceGraphic" in2="BackgroundImageFix" result="shape"/><feGaussianBlur result="effect1_foregroundBlur_5789_525" stdDeviation="85.714"/></filter><filter id="h" width="1555.11" height="1839.08" x="-213.095" y="-283.193" color-interpolation-filters="sRGB" filterUnits="userSpaceOnUse"><feFlood flood-opacity="0" result="BackgroundImageFix"/><feBlend in="SourceGraphic" in2="BackgroundImageFix" result="shape"/><feGaussianBlur result="effect1_foregroundBlur_5789_525" stdDeviation="85.714"/></filter><radialGradient id="c" cx="0" cy="0" r="1" gradientTransform="matrix(1420.0856 -1644.08827 327.22388 282.6405 783.694 873.285)" gradientUnits="userSpaceOnUse"><stop stop-color="#BDE6FC"/><stop offset=".273" stop-color="#F463E6"/><stop offset=".476" stop-color="#fff"/><stop offset=".675" stop-color="#1E2791"/></radialGradient></defs></svg>